<?xml version="1.0" encoding="UTF-8" standalone="no"?>
<!-- Created with Inkscape (http://www.inkscape.org/) -->

<svg
   xmlns:dc="http://purl.org/dc/elements/1.1/"
   xmlns:cc="http://creativecommons.org/ns#"
   xmlns:rdf="http://www.w3.org/1999/02/22-rdf-syntax-ns#"
   xmlns:svg="http://www.w3.org/2000/svg"
   xmlns="http://www.w3.org/2000/svg"
   xmlns:sodipodi="http://sodipodi.sourceforge.net/DTD/sodipodi-0.dtd"
   xmlns:inkscape="http://www.inkscape.org/namespaces/inkscape"
   version="1.1"
   id="svg61"
   width="2400"
   height="853.33331"
   viewBox="0 0 2400 853.33331"
   sodipodi:docname="GH_SVG_ALL_WHITE.svg"
   inkscape:version="0.92.5 (2060ec1f9f, 2020-04-08)">
  <metadata
     id="metadata67">
    <rdf:RDF>
      <cc:Work
         rdf:about="">
        <dc:format>image/svg+xml</dc:format>
        <dc:type
           rdf:resource="http://purl.org/dc/dcmitype/StillImage" />
        <dc:title></dc:title>
      </cc:Work>
    </rdf:RDF>
  </metadata>
  <defs
     id="defs65" />
  <sodipodi:namedview
     pagecolor="#ffffff"
     bordercolor="#666666"
     borderopacity="1"
     objecttolerance="10"
     gridtolerance="10"
     guidetolerance="10"
     inkscape:pageopacity="0"
     inkscape:pageshadow="2"
     inkscape:window-width="1680"
     inkscape:window-height="985"
     id="namedview63"
     showgrid="false"
     inkscape:pagecheckerboard="true"
     inkscape:zoom="0.70710678"
     inkscape:cx="1834.9692"
     inkscape:cy="453.42133"
     inkscape:window-x="1600"
     inkscape:window-y="0"
     inkscape:window-maximized="1"
     inkscape:current-layer="svg61"
     showguides="false" />
  <path
     style="fill:#ffffff;stroke:#ffffff;stroke-width:1px;stroke-linecap:butt;stroke-linejoin:miter;stroke-opacity:1;fill-opacity:1"
     d="m 1678.2609,377.00481 c -22.4225,8.85279 -81.1594,32.36715 -81.1594,32.36715 l 0.483,-57.00483 -37.2465,-21.47539 c 0,0 -10.4558,-6.58779 -10.5795,-16.20577 -0.1298,-10.09616 -0.7369,-13.95249 1.5372,-24.89137 0.9577,-4.12398 3.9783,-16.37048 10.057,-26.79945 3.2879,-5.6409 7.7772,-10.95746 14.9758,-14.00966 6.0958,-2.58463 63.285,14.00966 63.285,14.00966 -5.1797,-1.14666 41.7739,-52.56355 57.971,-60.86957 6.0143,-3.08421 -14.8417,-31.55477 -19.3236,-48.30918 -0.9089,-3.3977 -3.613,-10.71415 0.9662,-16.90821 3.1893,-4.31404 44.8973,-28.31894 49.7584,-29.95169 4.8513,-1.62947 11.4588,-0.33589 14.9759,3.38164 4.5407,4.79939 37.6811,53.1401 37.6811,53.1401 0.3946,-3.00475 40.1259,-11.97255 64.7343,-7.24638 0,0 14.7878,-48.38856 19.3237,-56.521736 2.8797,-5.163514 9.8484,-6.831062 15.4589,-8.695652 5.0754,-1.68674 49.0697,6.844623 53.1401,9.178748 6.0263,3.45566 14.5991,7.55622 14.9759,14.49275 0.4192,7.71522 -19.2897,137.10295 -24.1546,135.2657 -195.2455,-73.73468 -246.8599,127.05314 -246.8599,127.05314 z"
     id="path71"
     inkscape:connector-curvature="0"
     sodipodi:nodetypes="ccccscssssssssccsssssc" />
  <path
     style="fill:#ffffff;stroke:#ffffff;stroke-width:1px;stroke-linecap:butt;stroke-linejoin:miter;stroke-opacity:1;fill-opacity:1"
     d="m 1951.5576,264.73431 c 4.2221,-23.73425 13.6398,-82.38833 13.6398,-82.38833 l 47.3164,26.92624 c 0,0 21.5834,-13.28706 34.0131,-20.36217 8.1438,-4.63554 19.9935,-13.48917 28.2475,-8.55026 15.4802,12.73803 30.0206,33.7604 37.2132,46.8676 3.1324,5.72865 2.6275,8.01848 -0.303,15.26751 -4.9247,12.18207 -40.7709,44.60328 -40.7709,44.60328 3.6929,-3.80879 29.6091,59.27043 28.1865,77.41743 -0.5282,6.73833 38.0324,5.36162 54.6483,10.33256 3.3696,1.00808 9.0849,4.47528 11.9572,11.62272 2.0005,4.978 2.4973,46.79907 1.338,51.79427 -1.1569,4.98518 -7.656,13.31425 -12.6657,14.35916 -6.4678,1.34903 -64.1924,4.81716 -64.1924,4.81716 1.0277,2.21077 -4.7366,41.51356 -18.934,61.69534 0,0 34.1859,39.28645 38.732,47.41399 2.886,5.15993 1.4132,14.54392 -2.2459,19.18631 -4.6418,5.88918 -27.8608,35.19486 -32.9521,38.13327 -7.1051,4.10068 -11.0235,7.26919 -17.1271,3.95211 -6.7888,-3.68938 -106.3142,-77.84927 -102.1873,-81.01324 85.1183,-65.25702 75.5131,-158.48946 61.583,-191.712 -25.5818,-61.01105 -65.4966,-90.36295 -65.4966,-90.36295 z"
     id="path71-3"
     inkscape:connector-curvature="0"
     sodipodi:nodetypes="cccsccsssssssccssssssc" />
  <path
     style="fill:#ffffff;stroke:#ffffff;stroke-width:1px;stroke-linecap:butt;stroke-linejoin:miter;stroke-opacity:1;fill-opacity:1"
     d="m 1928.681,565.1495 c 19.1757,14.60945 58.3289,45.36779 58.3289,45.36779 l -47.1063,27.64167 -1.0387,44.4191 c 0,0 0.337,21.40329 -7.83,26.48462 -21.2099,3.56822 -51.6855,2.80616 -65.7064,3.89256 -5.631,0.43631 -25.5794,-63.09733 -25.5794,-63.09733 -13.6074,2.59868 -68.7183,-5.76303 -82.0811,-18.12297 0,0 -19.3267,29.02512 -31.3466,41.52798 -2.4375,2.5355 -7.3,8.63452 -14.9699,7.91991 -5.3418,-0.4977 -47.4611,-23.7733 -51.3731,-27.08878 -3.9041,-3.30881 -6.2152,-9.63266 -4.8532,-14.56569 1.7584,-6.3687 26.4675,-54.42334 26.4675,-54.42334 -2.7756,1.21667 -31.4868,-33.46012 -40.1723,-56.96486 0,0 -49.0607,12.37657 -58.3676,12.70215 -5.9086,0.20669 -10.9406,-4.89447 -15.4387,-8.73136 -4.0691,-3.47093 -19.5266,-45.53452 -19.6348,-50.22542 -0.1601,-6.94495 -1.0857,-16.4028 4.6557,-20.31359 6.3858,-4.34992 121.5161,-54.85502 122.2238,-49.70316 11.5641,84.18049 37.2472,118.15837 91.4651,147.93974 93.9154,51.58692 162.3571,5.34098 162.3571,5.34098 z"
     id="path71-7"
     inkscape:connector-curvature="0"
     sodipodi:nodetypes="cccccsssssssccssssssc" />
  <path
     style="fill:#ffffff;stroke:#ffffff;stroke-width:1px;stroke-linecap:butt;stroke-linejoin:miter;stroke-opacity:1;fill-opacity:1"
     d="m 1734.6213,479.4506 c 0,0 -3.3772,-113.35361 -0.3713,-137.11729 3.2942,-26.04295 25.0559,-43.9205 49.75,-44.93934 19.7048,-0.81299 52.0054,8.49106 54.5,42.93934 0.5741,7.92814 0.75,32.5 0.75,32.5 l -33.25,0.75 c 0,0 0.067,-28.69119 -0.75,-31.5 -4.1809,-14.37803 -28.9248,-19.78267 -36,0.75 -2.3664,6.86749 0.2629,133.29055 0.5,137.5 0.8397,14.90989 31.2133,21.75557 35.75,0.25 2.105,-9.97843 -0.25,-51.5 -0.25,-51.5 h -17 l -0.25,-31.75 h 50.5 c 0,0 2.7551,67.68223 0.75,87.25 -3.0227,29.49811 -28.1023,41.50877 -49.75,41.75 -57.8091,0.6442 -54.8787,-46.88271 -54.8787,-46.88271 z"
     id="path119"
     inkscape:connector-curvature="0"
     sodipodi:nodetypes="csssccssssccccssc" />
  <path
     style="fill:#ffffff;stroke:#ffffff;stroke-width:1px;stroke-linecap:butt;stroke-linejoin:miter;stroke-opacity:1;fill-opacity:1"
     d="m 1861.105,523.90994 h 35.0018 V 422.79367 h 37.0347 v 101.38144 h 35.7973 V 300.11065 h -35.6205 v 91.30516 c 0,0 -37.3882,0.88388 -37.3882,0 0,-0.88388 0,-90.86322 0,-90.86322 h -34.4715 z"
     id="path121"
     inkscape:connector-curvature="0" />
</svg>
